<?xml version="1.0" encoding="UTF-8"?><svg id="Layer_1" xmlns="http://www.w3.org/2000/svg" viewBox="0 0 95 93"><defs><style>.cls-1{fill:#fff;}.cls-2{fill:#40adc9;}</style></defs><circle class="cls-2" cx="47.5" cy="47.59" r="39.14"/><path class="cls-1" d="M30.56,74.09c-1.03-.39-1.36-1.16-1.36-2.22,.02-10.98,.01-21.97,.01-32.95,0-.25,0-.5,0-.85-.34,.15-.59,.27-.85,.38-1.26,.57-2.24,.31-2.7-.7-.34-.75-.13-1.86,1.24-2.47,3.8-1.67,7.57-3.42,11.36-5.14,2.38-1.08,4.77-2.16,7.15-3.25,.17-.08,.34-.17,.54-.26,0-1.39,0-2.78,0-4.16,0-1.91,0-3.82,0-5.72,0-1.14,.71-1.85,1.84-1.86,2.41-.01,4.82-.01,7.23,0,1.11,0,1.8,.7,1.82,1.8,.01,.56,.01,1.12,0,1.68-.02,1.15-.7,1.83-1.85,1.84-1.62,.01-3.24,0-4.86,0-.21,0-.42,0-.72,0v.64c0,1.72,.02,3.43-.01,5.14,0,.49,.13,.73,.59,.94,6.19,2.79,12.38,5.6,18.55,8.44,.44,.2,.86,.59,1.12,1,.38,.58,.2,1.36-.29,1.86-.52,.53-1.15,.7-1.85,.45-.45-.16-.87-.37-1.38-.59v.83c0,10.98,0,21.97,.01,32.95,0,1.06-.33,1.83-1.36,2.22h-9.83c0-4.29,.01-8.59,0-12.88,0-.98-.67-1.66-1.66-1.71-.65-.03-1.31-.01-1.96-.01-3,0-6.01,0-9.01,0-1.2,0-1.95,.64-1.95,1.73,0,4.29,0,8.59,0,12.88h-9.83Zm17.1-22.18c4.04,.01,7.31-3.25,7.31-7.29,0-4.01-3.24-7.28-7.25-7.3-4.04-.02-7.33,3.24-7.34,7.27-.01,4.05,3.23,7.31,7.28,7.32Z"/></svg>