<?xml version="1.0" encoding="UTF-8"?><svg id="Layer_1" xmlns="http://www.w3.org/2000/svg" xmlns:xlink="http://www.w3.org/1999/xlink" viewBox="0 0 95 93"><defs><style>.cls-1{fill:url(#linear-gradient);}.cls-2{fill:#fff;}.cls-3{fill:url(#linear-gradient-3);}.cls-4{fill:url(#linear-gradient-2);}</style><linearGradient id="linear-gradient" x1="22.68" y1="25.86" x2="22.19" y2="67.2" gradientUnits="userSpaceOnUse"><stop offset="0" stop-color="#ff52ae"/><stop offset=".05" stop-color="#f952ad"/><stop offset=".11" stop-color="#eb54ab"/><stop offset=".17" stop-color="#d256a8"/><stop offset=".24" stop-color="#b05aa4"/><stop offset=".31" stop-color="#845f9e"/><stop offset=".38" stop-color="#4f6497"/><stop offset=".44" stop-color="#216a92"/><stop offset=".52" stop-color="#236f96"/><stop offset=".62" stop-color="#2a7ea2"/><stop offset=".73" stop-color="#3697b7"/><stop offset=".8" stop-color="#40adc9"/></linearGradient><linearGradient id="linear-gradient-2" x1="35.64" y1="16.45" x2="34.92" y2="77.39" gradientUnits="userSpaceOnUse"><stop offset="0" stop-color="#ff52ae"/><stop offset=".06" stop-color="#f952ad"/><stop offset=".12" stop-color="#eb54ab"/><stop offset=".19" stop-color="#d256a8"/><stop offset=".27" stop-color="#b05aa4"/><stop offset=".35" stop-color="#845f9e"/><stop offset=".43" stop-color="#4f6497"/><stop offset=".5" stop-color="#216a92"/><stop offset=".56" stop-color="#257299"/><stop offset=".67" stop-color="#308aac"/><stop offset=".79" stop-color="#40adc9"/></linearGradient><linearGradient id="linear-gradient-3" x1="56.14" y1="9.03" x2="55.24" y2="85.89" gradientUnits="userSpaceOnUse"><stop offset="0" stop-color="#ff52ae"/><stop offset=".06" stop-color="#f952ad"/><stop offset=".12" stop-color="#eb54ab"/><stop offset=".19" stop-color="#d256a8"/><stop offset=".27" stop-color="#b05aa4"/><stop offset=".35" stop-color="#845f9e"/><stop offset=".43" stop-color="#4f6497"/><stop offset=".5" stop-color="#216a92"/><stop offset=".64" stop-color="#318eaf"/><stop offset=".75" stop-color="#3ca4c2"/><stop offset=".83" stop-color="#40adc9"/></linearGradient></defs><circle class="cls-2" cx="47.5" cy="46.67" r="38.43"/><g><path class="cls-1" d="M35.81,45.73L15.49,25.41c-4.05,6.09-6.42,13.4-6.42,21.26,0,7.36,2.07,14.23,5.66,20.07l19.47-19.47,1.62-1.54Z"/><path class="cls-4" d="M21.63,75.1c.62,.56,1.26,1.1,1.91,1.62l20.05-20.04,10.94-11.01L24.64,15.78c-.67,.5-1.32,1.02-1.96,1.56l21.95,21.95-1.37,1.37L21.23,18.63c-.61,.57-1.19,1.16-1.76,1.76l22.03,22.03-1.37,1.37L18.18,21.84c-.54,.64-1.06,1.29-1.56,1.96l21.27,21.27c.18,.18,.29,.44,.28,.7,0,.26-.11,.51-.3,.69l-2.32,2.21-19.74,19.74c.48,.69,.98,1.37,1.5,2.03l20.02-20.02,2.77-2.93,1.37,1.37-2.76,2.91-20.17,20.17c.55,.63,1.11,1.24,1.69,1.83l20.22-20.22,2.87-2.83,1.37,1.37-2.87,2.83-20.19,20.19Z"/><path class="cls-3" d="M48.35,58.27l1.37-1.37,20.65,20.65c.67-.5,1.32-1.02,1.96-1.56l-20.85-20.85,1.37-1.37,20.93,20.93c.61-.57,1.19-1.16,1.76-1.76l-20.93-20.93,1.37-1.37,20.85,20.85c.54-.64,1.06-1.29,1.56-1.96l-20.65-20.65,1.37-1.37,20.41,20.41c4.05-6.09,6.41-13.39,6.41-21.25,0-8.36-2.68-16.09-7.21-22.4l-19.49,19.49-1.37-1.37,19.68-19.68c-.52-.65-1.06-1.29-1.62-1.91l-19.82,19.82-1.37-1.37,19.85-19.85c-.59-.59-1.2-1.15-1.83-1.69l-19.78,19.78-1.37-1.37,19.66-19.66c-.66-.52-1.33-1.02-2.03-1.5l-19.39,19.39-1.37-1.37,19.1-19.1c-5.84-3.59-12.72-5.66-20.07-5.66-7.86,0-15.16,2.36-21.25,6.41l30.32,30.32c.38,.38,.38,.99,0,1.37l-11.62,11.69-19.86,19.86c6.31,4.53,14.04,7.21,22.4,7.21,7.86,0,15.17-2.37,21.26-6.42l-20.41-20.41Z"/></g><path class="cls-2" d="M19.79,41.76c0-.4,0-.79,0-1.19,.03-.06,.08-.12,.09-.19,.44-1.81,1.62-2.87,3.43-3.14,4.29-.65,8.59-1.26,12.89-1.86,.88-.12,1.49-.5,1.88-1.32,.87-1.84,1.79-3.65,2.69-5.48,1.04-2.12,2.08-4.24,3.14-6.34,.67-1.34,1.77-2.13,3.28-2.23,1.86-.11,3.16,.76,3.98,2.41,1.91,3.88,3.83,7.75,5.73,11.63,.36,.75,.9,1.18,1.72,1.3,4.07,.58,8.13,1.18,12.2,1.76,1.1,.16,2.17,.32,3.04,1.11,1.77,1.59,1.79,4.19,0,5.94-3.05,2.99-6.1,5.99-9.19,8.94-.78,.74-1,1.52-.81,2.57,.77,4.24,1.49,8.48,2.2,12.73,.21,1.28-.1,2.45-1.02,3.39-1.36,1.39-3.13,1.66-4.89,.74-3.82-1.99-7.63-3.99-11.43-6.02-.85-.45-1.62-.51-2.44,0-.46,.28-.95,.51-1.43,.76-3.33,1.75-6.66,3.51-10,5.25-1.53,.8-3.04,.76-4.42-.28-1.34-1-1.76-2.4-1.48-4.03,.73-4.22,1.44-8.45,2.18-12.67,.17-.96-.07-1.69-.78-2.37-2.9-2.78-5.76-5.62-8.66-8.4-.89-.85-1.67-1.74-1.92-2.99Z"/></svg>