<?xml version="1.0" encoding="UTF-8"?><svg id="Layer_1" xmlns="http://www.w3.org/2000/svg" viewBox="0 0 95 93"><defs><style>.cls-1{fill:#fff;}.cls-2{fill:#216a92;}</style></defs><circle class="cls-2" cx="47.5" cy="46.32" r="38.68"/><path class="cls-1" d="M31.63,57.13s-8.94,0-9.67-.24c-.97-.32-1.21-3.63,2.66-4.11l.24-22.49s.24-2.9,3.38-3.39h17.4s7.97-.73,7.73,4.59l6.77,.24s2.17-.24,3.87,2.42l4.83,7.74,5.32,2.18s.97,.73,.97,2.42v9.19c0,1.71-6.28,1.69-7.49,1.69h-3.14"/><circle class="cls-1" cx="34.76" cy="57.27" r="4.82"/><circle class="cls-2" cx="34.77" cy="57.51" r="2.66"/><circle class="cls-1" cx="60.34" cy="57.66" r="4.82"/><circle class="cls-2" cx="60.35" cy="57.89" r="2.66"/><path class="cls-2" d="M55.22,41.91s-1.21,0-1.21-.6v-6.85s0-.6,.6-.81,6.24,.15,6.64,.15,4.11,6.52,4.11,6.52c0,0,.94,1.39-.07,1.59-1.01,.2-10.08,0-10.08,0Z"/></svg>